<svg width="32" height="32" viewBox="0 0 32 32" fill="none" xmlns="http://www.w3.org/2000/svg">
<rect width="32" height="32" rx="10" fill="#BDC3CD"/>
<g clip-path="url(#clip0_4629_38330)">
<path d="M22.1907 10.1404C21.047 9.61257 19.8205 9.22367 18.5382 9.00093C18.5149 8.99664 18.4915 9.00738 18.4795 9.02887C18.3218 9.31105 18.1471 9.67918 18.0247 9.96852C16.6454 9.76083 15.2733 9.76083 13.9223 9.96852C13.7999 9.67273 13.6189 9.31105 13.4604 9.02887C13.4484 9.0081 13.4251 8.99735 13.4017 9.00093C12.1201 9.22296 10.8936 9.61186 9.74919 10.1404C9.73929 10.1447 9.7308 10.1519 9.72514 10.1612C7.39881 13.657 6.76153 17.0668 7.07416 20.4344C7.07557 20.4509 7.08477 20.4666 7.0975 20.4767C8.63235 21.6104 10.1191 22.2987 11.5783 22.7549C11.6016 22.7621 11.6264 22.7535 11.6412 22.7341C11.9864 22.26 12.2941 21.7601 12.5579 21.2344C12.5735 21.2036 12.5586 21.1671 12.5268 21.1549C12.0387 20.9687 11.574 20.7417 11.127 20.4838C11.0917 20.4631 11.0888 20.4122 11.1214 20.3878C11.2154 20.3169 11.3095 20.2432 11.3993 20.1687C11.4156 20.1551 11.4382 20.1522 11.4573 20.1608C14.3941 21.5094 17.5734 21.5094 20.4755 20.1608C20.4946 20.1515 20.5172 20.1544 20.5342 20.168C20.624 20.2425 20.7181 20.3169 20.8129 20.3878C20.8454 20.4122 20.8433 20.4631 20.8079 20.4838C20.3609 20.7467 19.8962 20.9687 19.4075 21.1542C19.3756 21.1664 19.3615 21.2036 19.3771 21.2344C19.6465 21.7594 19.9542 22.2593 20.293 22.7334C20.3072 22.7535 20.3326 22.7621 20.356 22.7549C21.8222 22.2987 23.309 21.6104 24.8438 20.4767C24.8573 20.4666 24.8658 20.4516 24.8672 20.4351C25.2413 16.5418 24.2405 13.1599 22.2141 10.1619C22.2091 10.1519 22.2006 10.1447 22.1907 10.1404ZM12.9964 18.3839C12.1123 18.3839 11.3838 17.5674 11.3838 16.5648C11.3838 15.5621 12.0982 14.7456 12.9964 14.7456C13.9018 14.7456 14.6232 15.5692 14.6091 16.5648C14.6091 17.5674 13.8947 18.3839 12.9964 18.3839ZM18.959 18.3839C18.0749 18.3839 17.3464 17.5674 17.3464 16.5648C17.3464 15.5621 18.0608 14.7456 18.959 14.7456C19.8644 14.7456 20.5858 15.5692 20.5717 16.5648C20.5717 17.5674 19.8644 18.3839 18.959 18.3839Z" fill="white"/>
</g>
<defs>
<clipPath id="clip0_4629_38330">
<rect width="18" height="14" fill="white" transform="translate(7 9)"/>
</clipPath>
</defs>
</svg>
