<svg
  width="32"
  height="32"
  viewBox="0 0 32 32"
  fill="none"
  xmlns="http://www.w3.org/2000/svg"
>
  <rect width="32" height="32" rx="10" fill="#BDC3CD" />
  <path
    d="M15.7962 8.42172C18.1998 8.42172 18.4819 8.43243 19.4319 8.47529C20.3105 8.51458 20.7855 8.66101 21.1034 8.78601C21.5248 8.95029 21.8248 9.14315 22.1391 9.45743C22.4534 9.77172 22.6498 10.0717 22.8105 10.4931C22.9319 10.811 23.0819 11.286 23.1212 12.1646C23.1641 13.1146 23.1748 13.3967 23.1748 15.8003C23.1748 18.2039 23.1641 18.486 23.1212 19.436C23.0819 20.3146 22.9355 20.7896 22.8105 21.1074C22.6462 21.5288 22.4534 21.8288 22.1391 22.1431C21.8248 22.4574 21.5248 22.6538 21.1034 22.8146C20.7855 22.936 20.3105 23.086 19.4319 23.1253C18.4819 23.1681 18.1998 23.1788 15.7962 23.1788C13.3927 23.1788 13.1105 23.1681 12.1605 23.1253C11.2819 23.086 10.8069 22.9396 10.4891 22.8146C10.0677 22.6503 9.76766 22.4574 9.45338 22.1431C9.13909 21.8288 8.94266 21.5288 8.78195 21.1074C8.66052 20.7896 8.51052 20.3146 8.47123 19.436C8.42838 18.486 8.41766 18.2039 8.41766 15.8003C8.41766 13.3967 8.42838 13.1146 8.47123 12.1646C8.51052 11.286 8.65695 10.811 8.78195 10.4931C8.94623 10.0717 9.13909 9.77172 9.45338 9.45743C9.76766 9.14315 10.0677 8.94672 10.4891 8.78601C10.8069 8.66458 11.2819 8.51458 12.1605 8.47529C13.1105 8.42886 13.3962 8.42172 15.7962 8.42172ZM15.7962 6.80029C13.3534 6.80029 13.0462 6.81101 12.0855 6.85386C11.1284 6.89672 10.4748 7.05029 9.90338 7.27172C9.31052 7.50029 8.81052 7.81101 8.31052 8.31101C7.81052 8.81101 7.50338 9.31458 7.27123 9.90386C7.0498 10.4753 6.89623 11.1289 6.85338 12.0896C6.81052 13.0467 6.7998 13.3539 6.7998 15.7967C6.7998 18.2396 6.81052 18.5467 6.85338 19.5074C6.89623 20.4646 7.0498 21.1181 7.27123 21.6931C7.4998 22.286 7.81052 22.786 8.31052 23.286C8.81052 23.786 9.31409 24.0931 9.90338 24.3253C10.4748 24.5467 11.1284 24.7003 12.0891 24.7431C13.0498 24.786 13.3534 24.7967 15.7998 24.7967C18.2462 24.7967 18.5498 24.786 19.5105 24.7431C20.4677 24.7003 21.1212 24.5467 21.6962 24.3253C22.2891 24.0967 22.7891 23.786 23.2891 23.286C23.7891 22.786 24.0962 22.2824 24.3284 21.6931C24.5498 21.1217 24.7034 20.4681 24.7462 19.5074C24.7891 18.5467 24.7998 18.2431 24.7998 15.7967C24.7998 13.3503 24.7891 13.0467 24.7462 12.086C24.7034 11.1289 24.5498 10.4753 24.3284 9.90029C24.0998 9.30743 23.7891 8.80743 23.2891 8.30743C22.7891 7.80743 22.2855 7.50029 21.6962 7.26815C21.1248 7.04672 20.4712 6.89315 19.5105 6.85029C18.5462 6.81101 18.2391 6.80029 15.7962 6.80029Z"
    fill="white"
  />
  <path
    d="M15.7962 11.1813C13.2462 11.1813 11.1748 13.2491 11.1748 15.8027C11.1748 18.3563 13.2427 20.4241 15.7962 20.4241C18.3498 20.4241 20.4177 18.3563 20.4177 15.8027C20.4177 13.2491 18.3498 11.1813 15.7962 11.1813ZM15.7962 18.7991C14.1391 18.7991 12.7962 17.4563 12.7962 15.7991C12.7962 14.142 14.1391 12.7991 15.7962 12.7991C17.4534 12.7991 18.7962 14.142 18.7962 15.7991C18.7962 17.4563 17.4534 18.7991 15.7962 18.7991Z"
    fill="white"
  />
  <path
    d="M20.5991 12.0699C21.1948 12.0699 21.6776 11.587 21.6776 10.9913C21.6776 10.3956 21.1948 9.91272 20.5991 9.91272C20.0034 9.91272 19.5205 10.3956 19.5205 10.9913C19.5205 11.587 20.0034 12.0699 20.5991 12.0699Z"
    fill="white"
  />
</svg>
