<svg width="94" height="21" viewBox="0 0 94 21" fill="none" xmlns="http://www.w3.org/2000/svg">
<path d="M2.15183 0.929293C2.27883 0.776908 2.5111 0.782001 2.63097 0.940061C2.92386 1.32628 3.42364 2.01065 3.7143 2.5506C3.9824 3.04866 4.25831 3.76891 4.42043 4.21756C4.49371 4.42035 4.3435 4.63087 4.12787 4.6319C3.68638 4.634 2.987 4.6356 2.3982 4.6292C1.79764 4.62268 0.953923 4.5876 0.443898 4.5642C0.226228 4.55422 0.0852216 4.33342 0.171237 4.13322C0.356569 3.70185 0.663725 3.02121 0.947227 2.5506C1.27721 2.00282 1.83239 1.31258 2.15183 0.929293Z" fill="#FF6161"/>
<path d="M10.9107 0.93796C10.7837 0.785575 10.5514 0.790668 10.4315 0.948728C10.1386 1.33495 9.63886 2.01931 9.3482 2.55927C9.0801 3.05733 8.80419 3.77757 8.64207 4.22622C8.56879 4.42902 8.719 4.63954 8.93463 4.64056C9.37612 4.64266 10.0755 4.64426 10.6643 4.63787C11.2649 4.63135 12.1086 4.59627 12.6186 4.57287C12.8363 4.56288 12.9773 4.34209 12.8913 4.14189C12.7059 3.71052 12.3988 3.02988 12.1153 2.55927C11.7853 2.01149 11.2301 1.32124 10.9107 0.93796Z" fill="#FF6161"/>
<rect x="0.144531" y="4.23572" width="12.7738" height="3.49326" fill="#FF6161"/>
<rect x="0.144531" y="12.3728" width="4.64381" height="3.49326" transform="rotate(-90 0.144531 12.3728)" fill="#FF6161"/>
<rect width="12.7738" height="3.4934" transform="matrix(1 0 0 -1 0.14502 19.9116)" fill="#FF6161"/>
<rect width="4.64381" height="3.49353" transform="matrix(0 1 1 0 9.4248 11.7744)" fill="#FF6161"/>
<path d="M23.3858 8.26874L23.3742 8.25279L23.363 8.26896C22.5552 9.43142 21.3333 10.4759 20.1116 11.1065L20.1116 11.1065C19.3259 11.519 18.4669 11.4188 18.0577 10.7564C17.8424 10.404 17.7891 10.0429 17.8865 9.70424C17.9841 9.36529 18.2332 9.04705 18.6259 8.78194C20.6009 7.45871 21.8096 5.99459 21.8096 4.05347V3.40219C21.8096 2.93189 21.9662 2.59582 22.2385 2.37695C22.5114 2.15766 22.9025 2.05439 23.3745 2.05439C23.8464 2.05439 24.2375 2.15766 24.5104 2.37695C24.7828 2.59582 24.9394 2.93189 24.9394 3.40219V4.05347C24.9394 5.99472 26.089 7.34049 28.0447 8.50601C28.4369 8.74137 28.6859 9.05449 28.7834 9.39585C28.8809 9.73706 28.8275 10.108 28.6123 10.4603C28.2032 11.1225 27.3443 11.2034 26.5582 10.8104C25.3752 10.2189 24.2129 9.41095 23.3858 8.26874ZM33.1692 5.21788V5.23186H33.1832H34.5449C34.9572 5.23186 35.3089 5.33495 35.5572 5.54675C35.8052 5.75826 35.9519 6.07971 35.9519 6.52045C35.9519 6.96119 35.8052 7.28263 35.5572 7.49414C35.3089 7.70595 34.9572 7.80904 34.5449 7.80904H33.1832H33.1692V7.82301V10.0532C33.1692 10.5135 33.0077 10.8696 32.7324 11.1108C32.4568 11.3523 32.0656 11.4799 31.6043 11.4799C31.143 11.4799 30.7518 11.3523 30.4762 11.1108C30.2009 10.8696 30.0394 10.5135 30.0394 10.0532V3.22457C30.0394 2.76429 30.2008 2.41313 30.4761 2.17684C30.7517 1.94029 31.1428 1.81756 31.6043 1.81756C32.0657 1.81756 32.4569 1.94029 32.7325 2.17684C33.0077 2.41313 33.1692 2.76429 33.1692 3.22457V5.21788ZM31.4069 19.986H22.3877C21.7474 19.986 21.303 19.8677 21.0183 19.5928C20.7338 19.3179 20.6057 18.8836 20.6057 18.2435V14.2174C20.6057 13.5773 20.7338 13.148 21.0182 12.8781C21.3029 12.6081 21.7473 12.4946 22.3877 12.4946H31.4069C32.0473 12.4946 32.4867 12.6081 32.7664 12.878C33.046 13.1479 33.1692 13.5772 33.1692 14.2174V18.2435C33.1692 18.8837 33.046 19.3181 32.7663 19.5929C32.4866 19.8677 32.0472 19.986 31.4069 19.986ZM29.8281 14.835H23.9468C23.8844 14.835 23.8313 14.8558 23.7938 14.8933C23.7563 14.9309 23.7355 14.9839 23.7355 15.0463V17.4343C23.7355 17.4967 23.7563 17.5498 23.7938 17.5873C23.8313 17.6248 23.8844 17.6457 23.9468 17.6457H29.8281C29.8905 17.6457 29.9435 17.6248 29.981 17.5873C30.0185 17.5498 30.0394 17.4967 30.0394 17.4343V15.0463C30.0394 14.9839 30.0185 14.9309 29.981 14.8933C29.9435 14.8558 29.8905 14.835 29.8281 14.835Z" fill="#FF6161" stroke="white" stroke-width="0.0279461"/>
<mask id="path-8-inside-1_4629_38305" fill="white">
<path d="M45.8514 12.0463C49.6604 12.0463 52.2064 13.3291 52.2064 16.0527C52.2064 18.7762 49.6604 20.059 45.8514 20.059C42.0424 20.059 39.4965 18.7762 39.4965 16.0527C39.4965 13.3291 42.0424 12.0463 45.8514 12.0463ZM49.1078 10.1911V2.96784C49.1078 2.04026 49.7591 1.54686 50.6867 1.54686C51.6143 1.54686 52.2656 2.04026 52.2656 2.96784V3.38229H53.6865C54.5352 3.38229 55.0483 3.7178 55.0483 4.56644C55.0483 5.41508 54.5352 5.75059 53.6865 5.75059H52.2656V7.38866H53.6865C54.5352 7.38866 55.0483 7.72417 55.0483 8.57281C55.0483 9.42145 54.5352 9.75696 53.6865 9.75696H52.2656V10.1911C52.2656 11.1187 51.6143 11.6319 50.6867 11.6319C49.7591 11.6319 49.1078 11.1187 49.1078 10.1911ZM40.9767 3.34282V7.60576C40.9767 7.80311 41.0359 7.88206 41.2332 7.88206H41.7858C43.3844 7.88206 45.1804 7.70444 46.4435 7.50708C47.1935 7.38866 47.7855 7.62549 47.9237 8.41492C48.0816 9.22409 47.6079 9.85564 46.7987 9.99379C45.1212 10.2898 43.2463 10.4082 41.5688 10.4082H39.8123C38.5097 10.4082 37.8584 9.77669 37.8584 8.47413V3.34282C37.8584 2.45471 38.5294 1.90211 39.4176 1.90211C40.3057 1.90211 40.9767 2.45471 40.9767 3.34282ZM45.8514 17.6315C47.6671 17.6315 49.0289 17.1776 49.0289 16.0527C49.0289 14.9277 47.6671 14.4738 45.8514 14.4738C44.0357 14.4738 42.674 14.9277 42.674 16.0527C42.674 17.1776 44.0357 17.6315 45.8514 17.6315Z"/>
</mask>
<path d="M45.8514 12.0463C49.6604 12.0463 52.2064 13.3291 52.2064 16.0527C52.2064 18.7762 49.6604 20.059 45.8514 20.059C42.0424 20.059 39.4965 18.7762 39.4965 16.0527C39.4965 13.3291 42.0424 12.0463 45.8514 12.0463ZM49.1078 10.1911V2.96784C49.1078 2.04026 49.7591 1.54686 50.6867 1.54686C51.6143 1.54686 52.2656 2.04026 52.2656 2.96784V3.38229H53.6865C54.5352 3.38229 55.0483 3.7178 55.0483 4.56644C55.0483 5.41508 54.5352 5.75059 53.6865 5.75059H52.2656V7.38866H53.6865C54.5352 7.38866 55.0483 7.72417 55.0483 8.57281C55.0483 9.42145 54.5352 9.75696 53.6865 9.75696H52.2656V10.1911C52.2656 11.1187 51.6143 11.6319 50.6867 11.6319C49.7591 11.6319 49.1078 11.1187 49.1078 10.1911ZM40.9767 3.34282V7.60576C40.9767 7.80311 41.0359 7.88206 41.2332 7.88206H41.7858C43.3844 7.88206 45.1804 7.70444 46.4435 7.50708C47.1935 7.38866 47.7855 7.62549 47.9237 8.41492C48.0816 9.22409 47.6079 9.85564 46.7987 9.99379C45.1212 10.2898 43.2463 10.4082 41.5688 10.4082H39.8123C38.5097 10.4082 37.8584 9.77669 37.8584 8.47413V3.34282C37.8584 2.45471 38.5294 1.90211 39.4176 1.90211C40.3057 1.90211 40.9767 2.45471 40.9767 3.34282ZM45.8514 17.6315C47.6671 17.6315 49.0289 17.1776 49.0289 16.0527C49.0289 14.9277 47.6671 14.4738 45.8514 14.4738C44.0357 14.4738 42.674 14.9277 42.674 16.0527C42.674 17.1776 44.0357 17.6315 45.8514 17.6315Z" fill="#FF6161"/>
<path d="M52.2656 3.38229H52.2376V3.41024H52.2656V3.38229ZM52.2656 5.75059V5.72264H52.2376V5.75059H52.2656ZM52.2656 7.38866H52.2376V7.41661H52.2656V7.38866ZM52.2656 9.75696V9.72901H52.2376V9.75696H52.2656ZM46.4435 7.50708L46.4478 7.53469L46.4479 7.53468L46.4435 7.50708ZM47.9237 8.41492L47.8962 8.41974L47.8963 8.42028L47.9237 8.41492ZM46.7987 9.99379L46.794 9.96624L46.7939 9.96627L46.7987 9.99379ZM45.8514 12.0743C47.7535 12.0743 49.3365 12.3947 50.443 13.0522C51.5478 13.7087 52.1784 14.7015 52.1784 16.0527H52.2343C52.2343 14.6803 51.592 13.6699 50.4715 13.0041C49.3528 12.3394 47.7583 12.0184 45.8514 12.0184V12.0743ZM52.1784 16.0527C52.1784 17.4039 51.5478 18.3967 50.443 19.0532C49.3365 19.7107 47.7535 20.0311 45.8514 20.0311V20.087C47.7583 20.087 49.3528 19.766 50.4715 19.1012C51.592 18.4354 52.2343 17.4251 52.2343 16.0527H52.1784ZM45.8514 20.0311C43.9493 20.0311 42.3663 19.7107 41.2599 19.0532C40.1551 18.3967 39.5244 17.4039 39.5244 16.0527H39.4685C39.4685 17.4251 40.1109 18.4354 41.2313 19.1012C42.35 19.766 43.9445 20.087 45.8514 20.087V20.0311ZM39.5244 16.0527C39.5244 14.7015 40.1551 13.7087 41.2599 13.0522C42.3663 12.3947 43.9493 12.0743 45.8514 12.0743V12.0184C43.9445 12.0184 42.35 12.3394 41.2313 13.0041C40.1109 13.6699 39.4685 14.6803 39.4685 16.0527H39.5244ZM49.1358 10.1911V2.96784H49.0799V10.1911H49.1358ZM49.1358 2.96784C49.1358 2.51108 49.2958 2.16401 49.5676 1.93071C49.84 1.69692 50.2276 1.57481 50.6867 1.57481V1.51892C50.2182 1.51892 49.8164 1.64351 49.5312 1.8883C49.2455 2.1336 49.0799 2.49702 49.0799 2.96784H49.1358ZM50.6867 1.57481C51.1458 1.57481 51.5334 1.69692 51.8058 1.93071C52.0775 2.16401 52.2376 2.51108 52.2376 2.96784H52.2935C52.2935 2.49702 52.1279 2.1336 51.8422 1.8883C51.557 1.64351 51.1552 1.51892 50.6867 1.51892V1.57481ZM52.2376 2.96784V3.38229H52.2935V2.96784H52.2376ZM52.2656 3.41024H53.6865V3.35435H52.2656V3.41024ZM53.6865 3.41024C54.108 3.41024 54.4409 3.49367 54.6681 3.67784C54.8941 3.86107 55.0204 4.14799 55.0204 4.56644H55.0763C55.0763 4.13625 54.9459 3.8311 54.7033 3.63442C54.4618 3.43867 54.1138 3.35435 53.6865 3.35435V3.41024ZM55.0204 4.56644C55.0204 4.98489 54.8941 5.27182 54.6681 5.45505C54.4409 5.63921 54.108 5.72264 53.6865 5.72264V5.77854C54.1138 5.77854 54.4618 5.69421 54.7033 5.49847C54.9459 5.30178 55.0763 4.99663 55.0763 4.56644H55.0204ZM53.6865 5.72264H52.2656V5.77854H53.6865V5.72264ZM52.2376 5.75059V7.38866H52.2935V5.75059H52.2376ZM52.2656 7.41661H53.6865V7.36072H52.2656V7.41661ZM53.6865 7.41661C54.108 7.41661 54.4409 7.50004 54.6681 7.68421C54.8941 7.86743 55.0204 8.15436 55.0204 8.57281H55.0763C55.0763 8.14262 54.9459 7.83747 54.7033 7.64079C54.4618 7.44504 54.1138 7.36072 53.6865 7.36072V7.41661ZM55.0204 8.57281C55.0204 8.99126 54.8941 9.27819 54.6681 9.46141C54.4409 9.64558 54.108 9.72901 53.6865 9.72901V9.78491C54.1138 9.78491 54.4618 9.70058 54.7033 9.50484C54.9459 9.30815 55.0763 9.003 55.0763 8.57281H55.0204ZM53.6865 9.72901H52.2656V9.78491H53.6865V9.72901ZM52.2376 9.75696V10.1911H52.2935V9.75696H52.2376ZM52.2376 10.1911C52.2376 10.648 52.0775 11.0001 51.8056 11.2383C51.5331 11.477 51.1456 11.6039 50.6867 11.6039V11.6598C51.1554 11.6598 51.5573 11.5301 51.8424 11.2804C52.128 11.0302 52.2935 10.6619 52.2935 10.1911H52.2376ZM50.6867 11.6039C50.2278 11.6039 49.8403 11.477 49.5678 11.2383C49.2959 11.0001 49.1358 10.648 49.1358 10.1911H49.0799C49.0799 10.6619 49.2454 11.0302 49.531 11.2804C49.8161 11.5301 50.218 11.6598 50.6867 11.6598V11.6039ZM40.9487 3.34282V7.60576H41.0046V3.34282H40.9487ZM40.9487 7.60576C40.9487 7.70562 40.9633 7.78391 41.0101 7.83648C41.0576 7.88996 41.132 7.91 41.2332 7.91V7.85411C41.1372 7.85411 41.0833 7.83469 41.0518 7.79935C41.0196 7.76311 41.0046 7.70325 41.0046 7.60576H40.9487ZM41.2332 7.91H41.7858V7.85411H41.2332V7.91ZM41.7858 7.91C43.3862 7.91 45.1836 7.73222 46.4478 7.53469L46.4392 7.47947C45.1772 7.67665 43.3827 7.85411 41.7858 7.85411V7.91ZM46.4479 7.53468C46.8195 7.47601 47.1479 7.50606 47.3995 7.64502C47.6499 7.78331 47.8283 8.03181 47.8962 8.41974L47.9512 8.41011C47.8809 8.0086 47.6942 7.74397 47.4265 7.5961C47.16 7.44889 46.8175 7.41973 46.4391 7.47947L46.4479 7.53468ZM47.8963 8.42028C47.9739 8.8181 47.896 9.17023 47.7012 9.43961C47.5063 9.70914 47.1925 9.89821 46.794 9.96624L46.8034 10.0213C47.2141 9.95122 47.5418 9.75544 47.7465 9.47236C47.9513 9.18914 48.0314 8.82092 47.9511 8.40957L47.8963 8.42028ZM46.7939 9.96627C45.1184 10.2619 43.2452 10.3803 41.5688 10.3803V10.4362C43.2474 10.4362 45.124 10.3177 46.8036 10.0213L46.7939 9.96627ZM41.5688 10.3803H39.8123V10.4362H41.5688V10.3803ZM39.8123 10.3803C39.1651 10.3803 38.685 10.2234 38.3665 9.90974C38.0481 9.59616 37.8864 9.12111 37.8864 8.47413H37.8305C37.8305 9.12972 37.9944 9.62172 38.3273 9.94956C38.6601 10.2773 39.1569 10.4362 39.8123 10.4362V10.3803ZM37.8864 8.47413V3.34282H37.8305V8.47413H37.8864ZM37.8864 3.34282C37.8864 2.90628 38.0511 2.55383 38.3236 2.31026C38.5964 2.0664 38.9792 1.93005 39.4176 1.93005V1.87416C38.9678 1.87416 38.571 2.01412 38.2863 2.26859C38.0013 2.52334 37.8305 2.89126 37.8305 3.34282H37.8864ZM39.4176 1.93005C39.8559 1.93005 40.2387 2.0664 40.5115 2.31026C40.784 2.55383 40.9487 2.90628 40.9487 3.34282H41.0046C41.0046 2.89126 40.8338 2.52334 40.5488 2.26859C40.2641 2.01412 39.8673 1.87416 39.4176 1.87416V1.93005ZM45.8514 17.6595C46.7609 17.6595 47.5598 17.5459 48.1325 17.2895C48.7062 17.0325 49.0568 16.6297 49.0568 16.0527H49.0009C49.0009 16.6006 48.6707 16.9872 48.1096 17.2385C47.5475 17.4902 46.7577 17.6036 45.8514 17.6036V17.6595ZM49.0568 16.0527C49.0568 15.4756 48.7062 15.0728 48.1325 14.8159C47.5598 14.5594 46.7609 14.4459 45.8514 14.4459V14.5018C46.7577 14.5018 47.5475 14.6152 48.1096 14.8669C48.6707 15.1182 49.0009 15.5048 49.0009 16.0527H49.0568ZM45.8514 14.4459C44.942 14.4459 44.143 14.5594 43.5704 14.8159C42.9966 15.0728 42.646 15.4756 42.646 16.0527H42.7019C42.7019 15.5048 43.0322 15.1182 43.5932 14.8669C44.1554 14.6152 44.9452 14.5018 45.8514 14.5018V14.4459ZM42.646 16.0527C42.646 16.6297 42.9966 17.0325 43.5704 17.2895C44.143 17.5459 44.942 17.6595 45.8514 17.6595V17.6036C44.9452 17.6036 44.1554 17.4902 43.5932 17.2385C43.0322 16.9872 42.7019 16.6006 42.7019 16.0527H42.646Z" fill="white" mask="url(#path-8-inside-1_4629_38305)"/>
<mask id="path-10-inside-2_4629_38305" fill="white">
<path d="M68.8482 18.4012V3.00731C68.8482 2.05999 69.4994 1.54686 70.427 1.54686C71.3743 1.54686 72.0059 2.05999 72.0059 3.00731V18.4012C72.0059 19.3486 71.3743 19.8617 70.427 19.8617C69.4994 19.8617 68.8482 19.3486 68.8482 18.4012ZM66.5193 8.77017C66.5193 12.6976 64.8615 15.2632 61.3683 15.2632C57.875 15.2632 56.2172 12.6976 56.2172 8.77017C56.2172 4.84274 57.875 2.27709 61.3683 2.27709C64.8615 2.27709 66.5193 4.84274 66.5193 8.77017ZM61.3683 12.6187C62.9471 12.6187 63.4405 10.9016 63.4405 8.77017C63.4405 6.6387 62.9471 4.92169 61.3683 4.92169C59.7894 4.92169 59.296 6.6387 59.296 8.77017C59.296 10.9016 59.7894 12.6187 61.3683 12.6187Z"/>
</mask>
<path d="M68.8482 18.4012V3.00731C68.8482 2.05999 69.4994 1.54686 70.427 1.54686C71.3743 1.54686 72.0059 2.05999 72.0059 3.00731V18.4012C72.0059 19.3486 71.3743 19.8617 70.427 19.8617C69.4994 19.8617 68.8482 19.3486 68.8482 18.4012ZM66.5193 8.77017C66.5193 12.6976 64.8615 15.2632 61.3683 15.2632C57.875 15.2632 56.2172 12.6976 56.2172 8.77017C56.2172 4.84274 57.875 2.27709 61.3683 2.27709C64.8615 2.27709 66.5193 4.84274 66.5193 8.77017ZM61.3683 12.6187C62.9471 12.6187 63.4405 10.9016 63.4405 8.77017C63.4405 6.6387 62.9471 4.92169 61.3683 4.92169C59.7894 4.92169 59.296 6.6387 59.296 8.77017C59.296 10.9016 59.7894 12.6187 61.3683 12.6187Z" fill="#FF6161"/>
<path d="M68.8761 18.4012V3.00731H68.8202V18.4012H68.8761ZM68.8761 3.00731C68.8761 2.54046 69.0363 2.18342 69.3083 1.94277C69.5807 1.70171 69.9682 1.57481 70.427 1.57481V1.51892C69.9583 1.51892 69.5564 1.64858 69.2712 1.90092C68.9856 2.15366 68.8202 2.52685 68.8202 3.00731H68.8761ZM70.427 1.57481C70.8959 1.57481 71.2833 1.70177 71.5531 1.94269C71.8225 2.18321 71.9779 2.5402 71.9779 3.00731H72.0338C72.0338 2.52711 71.8735 2.15387 71.5903 1.901C71.3075 1.64852 70.9055 1.51892 70.427 1.51892V1.57481ZM71.9779 3.00731V18.4012H72.0338V3.00731H71.9779ZM71.9779 18.4012C71.9779 18.8684 71.8225 19.2253 71.5531 19.4659C71.2833 19.7068 70.8959 19.8337 70.427 19.8337V19.8896C70.9055 19.8896 71.3075 19.76 71.5903 19.5076C71.8735 19.2547 72.0338 18.8814 72.0338 18.4012H71.9779ZM70.427 19.8337C69.9682 19.8337 69.5807 19.7068 69.3083 19.4658C69.0363 19.2251 68.8761 18.8681 68.8761 18.4012H68.8202C68.8202 18.8817 68.9856 19.2549 69.2712 19.5076C69.5564 19.76 69.9583 19.8896 70.427 19.8896V19.8337ZM66.4914 8.77017C66.4914 10.7305 66.0775 12.347 65.2314 13.4727C64.3862 14.5972 63.1072 15.2353 61.3683 15.2353V15.2912C63.1226 15.2912 64.4191 14.6465 65.2761 13.5063C66.1322 12.3673 66.5473 10.7372 66.5473 8.77017H66.4914ZM61.3683 15.2353C59.6293 15.2353 58.3503 14.5972 57.5051 13.4727C56.659 12.347 56.2452 10.7305 56.2452 8.77017H56.1893C56.1893 10.7372 56.6044 12.3673 57.4605 13.5063C58.3175 14.6465 59.614 15.2912 61.3683 15.2912V15.2353ZM56.2452 8.77017C56.2452 6.80979 56.659 5.19334 57.5051 4.06763C58.3503 2.94317 59.6293 2.30503 61.3683 2.30503V2.24914C59.614 2.24914 58.3175 2.89383 57.4605 4.03405C56.6044 5.17304 56.1893 6.80312 56.1893 8.77017H56.2452ZM61.3683 2.30503C63.1072 2.30503 64.3862 2.94317 65.2314 4.06763C66.0775 5.19334 66.4914 6.80979 66.4914 8.77017H66.5473C66.5473 6.80312 66.1322 5.17304 65.2761 4.03405C64.4191 2.89383 63.1226 2.24914 61.3683 2.24914V2.30503ZM61.3683 12.6466C61.7684 12.6466 62.1011 12.5377 62.3745 12.3397C62.6477 12.1419 62.8601 11.8564 63.0219 11.5054C63.3451 10.8042 63.4685 9.83718 63.4685 8.77017H63.4126C63.4126 9.83462 63.2893 10.7919 62.9711 11.482C62.8122 11.8267 62.6052 12.1037 62.3418 12.2944C62.0786 12.485 61.7576 12.5907 61.3683 12.5907V12.6466ZM63.4685 8.77017C63.4685 7.70315 63.3451 6.73616 63.0219 6.03493C62.8601 5.68396 62.6477 5.39843 62.3745 5.20064C62.1011 5.00264 61.7684 4.89374 61.3683 4.89374V4.94963C61.7576 4.94963 62.0786 5.05536 62.3418 5.24591C62.6052 5.43667 62.8122 5.7136 62.9711 6.05833C63.2893 6.74847 63.4126 7.70572 63.4126 8.77017H63.4685ZM61.3683 4.89374C60.9682 4.89374 60.6355 5.00264 60.362 5.20064C60.0889 5.39843 59.8765 5.68396 59.7147 6.03493C59.3914 6.73616 59.2681 7.70315 59.2681 8.77017H59.324C59.324 7.70572 59.4473 6.74847 59.7655 6.05833C59.9244 5.7136 60.1314 5.43667 60.3948 5.24591C60.6579 5.05536 60.979 4.94963 61.3683 4.94963V4.89374ZM59.2681 8.77017C59.2681 9.83718 59.3914 10.8042 59.7147 11.5054C59.8765 11.8564 60.0889 12.1419 60.362 12.3397C60.6355 12.5377 60.9682 12.6466 61.3683 12.6466V12.5907C60.979 12.5907 60.6579 12.485 60.3948 12.2944C60.1314 12.1037 59.9244 11.8267 59.7655 11.482C59.4473 10.7919 59.324 9.83462 59.324 8.77017H59.2681Z" fill="white" mask="url(#path-10-inside-2_4629_38305)"/>
<mask id="path-12-inside-3_4629_38305" fill="white">
<path d="M82.0623 5.11904H78.2138C77.3652 5.11904 76.7928 4.64538 76.7928 3.79675C76.7928 2.94811 77.3652 2.47445 78.2138 2.47445H89.108C89.9566 2.47445 90.529 2.94811 90.529 3.79675C90.529 4.64538 89.9566 5.11904 89.108 5.11904H85.2398C85.3977 7.17157 87.3318 8.47413 90.0553 9.57934C90.8053 9.87537 91.1013 10.6648 90.8053 11.3753C90.5092 12.0858 89.779 12.3029 88.9698 12.0858C86.8186 11.4937 84.8056 10.0727 83.6609 8.61228C82.5162 10.0727 80.5032 11.4937 78.352 12.0858C77.5428 12.3029 76.8126 12.0858 76.5165 11.3753C76.2205 10.6648 76.5165 9.87537 77.2665 9.57934C79.99 8.47413 81.9044 7.17157 82.0623 5.11904ZM91.0618 17.5921H76.26C75.3719 17.5921 74.839 17.1382 74.839 16.25C74.839 15.3619 75.3719 14.908 76.26 14.908H91.0618C91.9499 14.908 92.4828 15.3619 92.4828 16.25C92.4828 17.1382 91.9499 17.5921 91.0618 17.5921Z"/>
</mask>
<path d="M82.0623 5.11904H78.2138C77.3652 5.11904 76.7928 4.64538 76.7928 3.79675C76.7928 2.94811 77.3652 2.47445 78.2138 2.47445H89.108C89.9566 2.47445 90.529 2.94811 90.529 3.79675C90.529 4.64538 89.9566 5.11904 89.108 5.11904H85.2398C85.3977 7.17157 87.3318 8.47413 90.0553 9.57934C90.8053 9.87537 91.1013 10.6648 90.8053 11.3753C90.5092 12.0858 89.779 12.3029 88.9698 12.0858C86.8186 11.4937 84.8056 10.0727 83.6609 8.61228C82.5162 10.0727 80.5032 11.4937 78.352 12.0858C77.5428 12.3029 76.8126 12.0858 76.5165 11.3753C76.2205 10.6648 76.5165 9.87537 77.2665 9.57934C79.99 8.47413 81.9044 7.17157 82.0623 5.11904ZM91.0618 17.5921H76.26C75.3719 17.5921 74.839 17.1382 74.839 16.25C74.839 15.3619 75.3719 14.908 76.26 14.908H91.0618C91.9499 14.908 92.4828 15.3619 92.4828 16.25C92.4828 17.1382 91.9499 17.5921 91.0618 17.5921Z" fill="#FF6161"/>
<path d="M82.0623 5.11904L82.0902 5.12119L82.0925 5.0911H82.0623V5.11904ZM85.2398 5.11904V5.0911H85.2096L85.2119 5.12119L85.2398 5.11904ZM90.0553 9.57934L90.0448 9.60523L90.045 9.60533L90.0553 9.57934ZM90.8053 11.3753L90.8311 11.386L90.8053 11.3753ZM88.9698 12.0858L88.9624 12.1127L88.9626 12.1128L88.9698 12.0858ZM83.6609 8.61228L83.6829 8.59504L83.6609 8.56698L83.6389 8.59504L83.6609 8.61228ZM78.352 12.0858L78.3592 12.1128L78.3594 12.1127L78.352 12.0858ZM76.5165 11.3753L76.5423 11.3645L76.5165 11.3753ZM77.2665 9.57934L77.2768 9.60533L77.277 9.60523L77.2665 9.57934ZM82.0623 5.0911H78.2138V5.14699H82.0623V5.0911ZM78.2138 5.0911C77.7945 5.0911 77.4466 4.97411 77.2038 4.75537C76.9614 4.53699 76.8208 4.21445 76.8208 3.79675H76.7649C76.7649 4.22768 76.9104 4.56629 77.1664 4.7969C77.4219 5.02715 77.7845 5.14699 78.2138 5.14699V5.0911ZM76.8208 3.79675C76.8208 3.37905 76.9614 3.0565 77.2038 2.83812C77.4466 2.61938 77.7945 2.50239 78.2138 2.50239V2.4465C77.7845 2.4465 77.4219 2.56634 77.1664 2.79659C76.9104 3.0272 76.7649 3.36581 76.7649 3.79675H76.8208ZM78.2138 2.50239H89.108V2.4465H78.2138V2.50239ZM89.108 2.50239C89.5273 2.50239 89.8752 2.61938 90.118 2.83812C90.3604 3.0565 90.501 3.37905 90.501 3.79675H90.5569C90.5569 3.36581 90.4114 3.0272 90.1554 2.79659C89.8999 2.56634 89.5373 2.4465 89.108 2.4465V2.50239ZM90.501 3.79675C90.501 4.21445 90.3604 4.53699 90.118 4.75537C89.8752 4.97411 89.5273 5.0911 89.108 5.0911V5.14699C89.5373 5.14699 89.8999 5.02715 90.1554 4.7969C90.4114 4.56629 90.5569 4.22768 90.5569 3.79675H90.501ZM89.108 5.0911H85.2398V5.14699H89.108V5.0911ZM85.2119 5.12119C85.2916 6.1568 85.8196 7.00193 86.6673 7.72569C87.5144 8.44896 88.6821 9.05225 90.0448 9.60523L90.0658 9.55344C88.705 9.00122 87.5438 8.40062 86.7036 7.68318C85.8638 6.96622 85.3459 6.13382 85.2676 5.1169L85.2119 5.12119ZM90.045 9.60533C90.7797 9.89532 91.0698 10.6677 90.7795 11.3645L90.8311 11.386C91.1328 10.6619 90.8308 9.85542 90.0656 9.55334L90.045 9.60533ZM90.7795 11.3645C90.6345 11.7125 90.3838 11.9388 90.0705 12.0521C89.7564 12.1656 89.3776 12.1663 88.9771 12.0588L88.9626 12.1128C89.3712 12.2224 89.7621 12.223 90.0895 12.1047C90.4175 11.9861 90.68 11.7485 90.8311 11.386L90.7795 11.3645ZM88.9772 12.0588C86.8319 11.4684 84.8239 10.0508 83.6829 8.59504L83.6389 8.62952C84.7872 10.0946 86.8054 11.519 88.9624 12.1127L88.9772 12.0588ZM83.6389 8.59504C82.4979 10.0508 80.4899 11.4684 78.3446 12.0588L78.3594 12.1127C80.5164 11.519 82.5346 10.0946 83.6829 8.62952L83.6389 8.59504ZM78.3447 12.0588C77.9442 12.1663 77.5654 12.1656 77.2513 12.0521C76.938 11.9388 76.6873 11.7125 76.5423 11.3645L76.4907 11.386C76.6418 11.7485 76.9043 11.9861 77.2323 12.1047C77.5597 12.223 77.9506 12.2224 78.3592 12.1128L78.3447 12.0588ZM76.5423 11.3645C76.252 10.6677 76.5421 9.89532 77.2768 9.60533L77.2562 9.55334C76.491 9.85542 76.189 10.6619 76.4907 11.386L76.5423 11.3645ZM77.277 9.60523C78.6397 9.05224 79.8025 8.44894 80.6447 7.72564C81.4875 7.00183 82.0105 6.1567 82.0902 5.12119L82.0344 5.1169C81.9562 6.13391 81.4431 6.96632 80.6083 7.68323C79.773 8.40064 78.6168 9.00123 77.256 9.55344L77.277 9.60523ZM91.0618 17.5641H76.26V17.62H91.0618V17.5641ZM76.26 17.5641C75.8204 17.5641 75.4728 17.4518 75.2354 17.2335C74.9983 17.0156 74.8669 16.6884 74.8669 16.25H74.8111C74.8111 16.6998 74.9461 17.0436 75.1975 17.2747C75.4485 17.5054 75.8115 17.62 76.26 17.62V17.5641ZM74.8669 16.25C74.8669 15.8117 74.9983 15.4845 75.2354 15.2666C75.4728 15.0483 75.8204 14.936 76.26 14.936V14.8801C75.8115 14.8801 75.4485 14.9947 75.1975 15.2254C74.9461 15.4565 74.8111 15.8003 74.8111 16.25H74.8669ZM76.26 14.936H91.0618V14.8801H76.26V14.936ZM91.0618 14.936C91.5014 14.936 91.849 15.0483 92.0864 15.2666C92.3235 15.4845 92.4549 15.8117 92.4549 16.25H92.5108C92.5108 15.8003 92.3757 15.4565 92.1243 15.2254C91.8733 14.9947 91.5103 14.8801 91.0618 14.8801V14.936ZM92.4549 16.25C92.4549 16.6884 92.3235 17.0156 92.0864 17.2335C91.849 17.4518 91.5014 17.5641 91.0618 17.5641V17.62C91.5103 17.62 91.8733 17.5054 92.1243 17.2747C92.3757 17.0436 92.5108 16.6998 92.5108 16.25H92.4549Z" fill="white" mask="url(#path-12-inside-3_4629_38305)"/>
</svg>

