<svg width="34" height="34" viewBox="0 0 34 34" fill="none" xmlns="http://www.w3.org/2000/svg">
<rect width="34" height="34" rx="12" fill="#6B65FF"/>
<rect x="0.6" y="0.6" width="32.8" height="32.8" rx="11.4" stroke="#F0EFFF" stroke-opacity="0.1" stroke-width="1.2"/>
<path d="M17 10.9199L17.7647 10.1292C17.3383 9.71682 16.6617 9.71682 16.2353 10.1292L17 10.9199ZM20.7258 16.0535C21.1625 16.4758 21.8589 16.4642 22.2812 16.0275C22.7035 15.5908 22.6919 14.8944 22.2552 14.4721L20.7258 16.0535ZM11.7448 14.4721C11.3081 14.8944 11.2965 15.5908 11.7188 16.0275C12.1412 16.4642 12.8375 16.4758 13.2742 16.0535L11.7448 14.4721ZM15.9 23.0799C15.9 23.6874 16.3925 24.1799 17 24.1799C17.6075 24.1799 18.1 23.6874 18.1 23.0799H15.9ZM16.2353 11.7106L20.7258 16.0535L22.2552 14.4721L17.7647 10.1292L16.2353 11.7106ZM16.2353 10.1292L11.7448 14.4721L13.2742 16.0535L17.7647 11.7106L16.2353 10.1292ZM15.9 10.9199V16.9999H18.1V10.9199H15.9ZM15.9 16.9999V23.0799H18.1V16.9999H15.9Z" fill="white"/>
</svg>
